<svg width="177" height="70" viewBox="0 0 177 70" fill="none" xmlns="http://www.w3.org/2000/svg">
<path fill-rule="evenodd" clip-rule="evenodd" d="M24.2645 15.9959C26.1671 15.4414 28.1885 15.4414 30.0911 15.9959L61.9432 25.279C66.0793 26.4845 70.4736 26.4845 74.6097 25.279L106.462 15.9959C108.364 15.4414 110.386 15.4414 112.288 15.9959L126.648 20.1809C127.952 20.561 127.952 22.4085 126.648 22.7886L74.6097 37.9548C70.4736 39.1602 66.0793 39.1602 61.9432 37.9548L9.90495 22.7886C8.60085 22.4085 8.60085 20.561 9.90496 20.1809L24.2645 15.9959Z" fill="white"/>
<path fill-rule="evenodd" clip-rule="evenodd" d="M152.517 22.8631C150.614 23.4176 148.593 23.4176 146.69 22.8631L114.838 13.58C110.702 12.3745 106.308 12.3745 102.171 13.58L70.3193 22.8631C68.4167 23.4176 66.3953 23.4176 64.4927 22.8631L50.1332 18.6781C48.8291 18.298 48.8291 16.4505 50.1332 16.0704L102.171 0.904191C106.308 -0.301245 110.702 -0.301237 114.838 0.904199L166.876 16.0704C168.18 16.4505 168.18 18.298 166.876 18.6781L152.517 22.8631Z" fill="white"/>
<path d="M16.8653 67.5039H5.66263C4.88911 67.5039 4.22229 67.2372 3.66216 66.7037C3.1287 66.1436 2.86197 65.4768 2.86197 64.7033V56.3013C2.86197 55.5278 3.1287 54.8743 3.66216 54.3408C4.22229 53.7807 4.88911 53.5006 5.66263 53.5006H14.0646C14.8381 53.5006 15.4916 53.7807 16.0251 54.3408C16.5852 54.8743 16.8653 55.5278 16.8653 56.3013V59.1019L14.0646 61.9026H6.06272L8.46329 59.502H14.0646V55.9012H5.66263V65.1033H16.8653V67.5039ZM50.2715 53.5006L44.8302 67.5039H40.7493L35.468 53.5006H38.6688L42.4697 65.1834H43.2699L47.0708 53.5006H50.2715ZM84.0763 64.7033C84.0763 65.4768 83.7962 66.1436 83.2361 66.7037C82.7026 67.2372 82.0492 67.5039 81.2756 67.5039H72.8737C72.1002 67.5039 71.4333 67.2372 70.8732 66.7037C70.3398 66.1436 70.073 65.4768 70.073 64.7033V56.3013C70.073 55.5278 70.3398 54.8743 70.8732 54.3408C71.4333 53.7807 72.1002 53.5006 72.8737 53.5006H81.2756C82.0492 53.5006 82.7026 53.7807 83.2361 54.3408C83.7962 54.8743 84.0763 55.5278 84.0763 56.3013V64.7033ZM81.2756 65.1033V55.9012H72.8737V65.1033H81.2756ZM108.891 67.5039H106.091V47.0991L108.891 44.2985V67.5039ZM144.919 67.5039H142.118V65.5034L140.118 67.5039H133.716C132.943 67.5039 132.276 67.2372 131.716 66.7037C131.182 66.1436 130.915 65.4768 130.915 64.7033V53.5006H133.716V65.1033H142.118V53.5006H144.919V67.5039ZM175.735 67.5039H170.134C169.36 67.5039 168.694 67.2372 168.133 66.7037C167.6 66.1436 167.333 65.4768 167.333 64.7033V55.9012H163.332L165.733 53.5006H167.333V50.7L170.134 47.8993V53.5006H175.735V55.9012H170.134V65.1033H175.735V67.5039Z" fill="white"/>
</svg>
